<svg width="60mm" height="60mm" version="1.1" viewBox="0 0 60 60" xmlns="http://www.w3.org/2000/svg">
 <path d="m29.904 0.0010577c-15.412 0.10358-22.467 10.379-22.467 10.379l10.662 0.30878s3.9586-3.4012 11.875-3.4012c13.12 0 23.072 11.223 22.959 23.353-0.11657 12.503-10.518 18.819-10.518 18.819l-9.7682-15.305 11.042-17.231-9.321-0.0262-6.8181 10.448-0.01585-0.01082-4.0579 6.192 16.495 25.086 4.6638-2.2804s15.016-7.7539 15.358-25.542c0.34128-17.788-13.424-30.559-29.35-30.787-0.24885-0.0039702-0.49532-0.0039702-0.73994-0.0029777zm-26.733 16.809s-3.0539 6.4618-3.167 13.49c-0.1131 7.0286 2.6013 17.345 12.102 24.147 9.5003 6.8019 20.697 5.4411 20.697 5.4411l-4.5241-7.1419s-8.5953 0.56697-16.173-8.3888c-7.5776-8.9558-4.1848-20.632-4.1848-20.632l6.9507-0.03593v10.114l7.4174 11.555c-1.68e-4 -9.3232-3.7e-4 -19.172 9.79e-4 -28.495z" fill="#333"/>
</svg>
